<svg width="169" height="51" viewBox="0 0 169 51" fill="none" xmlns="http://www.w3.org/2000/svg">
<g clip-path="url(#clip0_84_47)">
<path d="M4.31445 35.1152C4.31445 35.0176 4.39583 34.8874 4.55859 34.7246C4.72135 34.5618 4.85156 34.4805 4.94922 34.4805C5.3724 35.4245 5.8444 36.4173 6.36523 37.459C6.88607 38.5007 7.48828 39.4609 8.17188 40.3398C8.88802 41.2188 9.70182 41.9349 10.6133 42.4883C11.5247 43.0742 12.5664 43.3672 13.7383 43.3672C14.7799 43.3672 15.6914 43.0905 16.4727 42.5371C17.2539 41.9837 17.791 41.1699 18.084 40.0957C18.2793 37.4264 18.263 34.7734 18.0352 32.1367C17.8073 29.5 17.5143 26.8796 17.1562 24.2754C16.7982 21.6387 16.4401 19.0182 16.082 16.4141C15.724 13.7773 15.5286 11.1243 15.4961 8.45508C15.4961 8.29232 15.4798 8.09701 15.4473 7.86914C15.4473 7.60872 15.4798 7.36458 15.5449 7.13672C15.61 6.90885 15.7077 6.71354 15.8379 6.55078C15.9681 6.38802 16.196 6.30664 16.5215 6.30664C16.8796 6.30664 17.1888 6.53451 17.4492 6.99023C18.263 11.7428 18.9954 16.5768 19.6465 21.4922C20.2975 26.4076 20.623 31.2741 20.623 36.0918C20.623 37.3939 20.5254 38.5983 20.3301 39.7051C20.1673 40.8118 19.8255 41.7559 19.3047 42.5371C18.7839 43.3509 18.0677 43.9857 17.1562 44.4414C16.2448 44.9297 15.0729 45.1738 13.6406 45.1738C12.4036 45.1738 11.2155 44.8809 10.0762 44.2949C8.9694 43.7415 7.97656 42.9766 7.09766 42C6.2513 41.056 5.56771 39.9818 5.04688 38.7773C4.55859 37.5729 4.31445 36.3522 4.31445 35.1152ZM23.4551 35.3105C23.2272 33.8132 23.1133 32.3646 23.1133 30.9648C23.1133 29.5326 23.1947 28.084 23.3574 26.6191C23.5527 25.1543 23.8132 23.6406 24.1387 22.0781C24.4967 20.4831 24.9036 18.7741 25.3594 16.9512C25.3594 16.5931 25.457 16.2676 25.6523 15.9746C25.8477 15.6491 26.1081 15.3887 26.4336 15.1934C26.7591 14.9655 27.1009 14.7865 27.459 14.6562C27.8171 14.526 28.1589 14.4609 28.4844 14.4609C29.2005 14.4609 29.8516 14.6888 30.4375 15.1445C31.0234 15.6003 31.5443 16.1536 32 16.8047C32.4883 17.4557 32.8952 18.1556 33.2207 18.9043C33.5788 19.6204 33.8717 20.2389 34.0996 20.7598C34.36 21.8991 34.5391 23.2012 34.6367 24.666C34.7669 26.0983 34.7832 27.5632 34.6855 29.0605C34.5879 30.5579 34.36 32.0391 34.002 33.5039C33.6439 34.9362 33.1393 36.2546 32.4883 37.459C31.8372 38.6634 30.9909 39.6725 29.9492 40.4863C28.9401 41.3001 27.7357 41.8047 26.3359 42C25.5872 42 25.0176 41.7559 24.627 41.2676C24.2363 40.7467 23.9434 40.1283 23.748 39.4121C23.5853 38.6634 23.4876 37.9147 23.4551 37.166C23.4551 36.4173 23.4551 35.7988 23.4551 35.3105ZM25.9453 35.1641C25.9453 35.4896 25.9453 35.7988 25.9453 36.0918C25.9779 36.3848 26.0104 36.6777 26.043 36.9707C26.1081 37.2311 26.1732 37.5241 26.2383 37.8496C26.3359 38.1426 26.4499 38.4844 26.5801 38.875H26.873C27.6543 38.875 28.3216 38.6146 28.875 38.0938C29.4284 37.5729 29.9004 36.9056 30.291 36.0918C30.6816 35.2454 31.0072 34.3177 31.2676 33.3086C31.528 32.2669 31.7233 31.2578 31.8535 30.2812C32.0163 29.2721 32.1139 28.3444 32.1465 27.498C32.2116 26.6191 32.2441 25.9193 32.2441 25.3984V24.4219C32.2441 23.9987 32.2279 23.5267 32.1953 23.0059C32.1628 22.4525 32.0977 21.8991 32 21.3457C31.9349 20.7598 31.821 20.2389 31.6582 19.7832C31.4954 19.2949 31.2839 18.9043 31.0234 18.6113C30.763 18.3184 30.4212 18.1719 29.998 18.1719C29.2819 17.944 28.6634 17.9928 28.1426 18.3184C27.6543 18.6439 27.2474 19.1973 26.9219 19.9785C26.6289 20.7272 26.401 21.6549 26.2383 22.7617C26.0755 23.8685 25.9779 25.0892 25.9453 26.4238C25.9128 27.7585 25.8965 29.1745 25.8965 30.6719C25.929 32.1693 25.9453 33.6667 25.9453 35.1641ZM52.8496 40.7305C52.4915 39.8516 52.0846 38.8913 51.6289 37.8496C51.2057 36.8079 50.7174 35.75 50.1641 34.6758C49.6432 33.6016 49.0736 32.5599 48.4551 31.5508C47.8691 30.5417 47.2507 29.6465 46.5996 28.8652C46.2741 29.1257 45.8997 29.5326 45.4766 30.0859C45.0534 30.6393 44.5977 31.2741 44.1094 31.9902C43.6536 32.6738 43.1816 33.4225 42.6934 34.2363C42.2376 35.0501 41.7819 35.8314 41.3262 36.5801C40.8704 37.2962 40.4473 37.9798 40.0566 38.6309C39.6986 39.2493 39.3893 39.7376 39.1289 40.0957L36.6387 38.875C37.1595 37.8984 37.8268 36.8568 38.6406 35.75C39.487 34.6432 40.3171 33.4876 41.1309 32.2832C41.9447 31.0788 42.6934 29.8743 43.377 28.6699C44.0605 27.4655 44.5163 26.2773 44.7441 25.1055L38.4941 11.9707C38.4616 11.9382 38.429 11.8242 38.3965 11.6289C38.3965 11.4336 38.3965 11.2708 38.3965 11.1406C38.3965 10.5872 38.4779 10.1641 38.6406 9.87109C38.8359 9.57812 39.2266 9.43164 39.8125 9.43164C39.8776 9.43164 39.9753 9.44792 40.1055 9.48047C40.2682 9.48047 40.3496 9.49674 40.3496 9.5293L46.5996 22.6152C46.7624 22.3548 47.0553 21.8665 47.4785 21.1504C47.9342 20.4017 48.4551 19.5391 49.041 18.5625C49.627 17.5534 50.2454 16.4792 50.8965 15.3398C51.5475 14.2005 52.1823 13.0938 52.8008 12.0195C53.4193 10.9453 53.9727 9.95247 54.4609 9.04102C54.9818 8.12956 55.3887 7.42969 55.6816 6.94141C56.0072 6.94141 56.349 6.99023 56.707 7.08789C57.0977 7.15299 57.293 7.44596 57.293 7.9668V8.16211C57.293 8.22721 57.2767 8.25977 57.2441 8.25977L48.0156 25.3984L55.3887 39.5098C55.4212 39.5749 55.4375 39.7214 55.4375 39.9492C55.4701 40.1445 55.4863 40.3073 55.4863 40.4375C55.4863 40.6003 55.4701 40.7956 55.4375 41.0234C55.4375 41.2513 55.3887 41.4466 55.291 41.6094C55.1934 41.7721 55.0469 41.9023 54.8516 42C54.6888 42.0977 54.4447 42.0977 54.1191 42C53.9564 41.9349 53.7122 41.7396 53.3867 41.4141C53.0612 41.0885 52.8822 40.8607 52.8496 40.7305ZM59.8809 35.3105C59.653 33.8132 59.5391 32.3646 59.5391 30.9648C59.5391 29.5326 59.6204 28.084 59.7832 26.6191C59.9785 25.1543 60.2389 23.6406 60.5645 22.0781C60.9225 20.4831 61.3294 18.7741 61.7852 16.9512C61.7852 16.5931 61.8828 16.2676 62.0781 15.9746C62.2734 15.6491 62.5339 15.3887 62.8594 15.1934C63.1849 14.9655 63.5267 14.7865 63.8848 14.6562C64.2428 14.526 64.5846 14.4609 64.9102 14.4609C65.6263 14.4609 66.2773 14.6888 66.8633 15.1445C67.4492 15.6003 67.9701 16.1536 68.4258 16.8047C68.9141 17.4557 69.321 18.1556 69.6465 18.9043C70.0046 19.6204 70.2975 20.2389 70.5254 20.7598C70.7858 21.8991 70.9648 23.2012 71.0625 24.666C71.1927 26.0983 71.209 27.5632 71.1113 29.0605C71.0137 30.5579 70.7858 32.0391 70.4277 33.5039C70.0697 34.9362 69.5651 36.2546 68.9141 37.459C68.263 38.6634 67.4167 39.6725 66.375 40.4863C65.3659 41.3001 64.1615 41.8047 62.7617 42C62.013 42 61.4434 41.7559 61.0527 41.2676C60.6621 40.7467 60.3691 40.1283 60.1738 39.4121C60.0111 38.6634 59.9134 37.9147 59.8809 37.166C59.8809 36.4173 59.8809 35.7988 59.8809 35.3105ZM62.3711 35.1641C62.3711 35.4896 62.3711 35.7988 62.3711 36.0918C62.4036 36.3848 62.4362 36.6777 62.4688 36.9707C62.5339 37.2311 62.599 37.5241 62.6641 37.8496C62.7617 38.1426 62.8757 38.4844 63.0059 38.875H63.2988C64.0801 38.875 64.7474 38.6146 65.3008 38.0938C65.8542 37.5729 66.3262 36.9056 66.7168 36.0918C67.1074 35.2454 67.4329 34.3177 67.6934 33.3086C67.9538 32.2669 68.1491 31.2578 68.2793 30.2812C68.4421 29.2721 68.5397 28.3444 68.5723 27.498C68.6374 26.6191 68.6699 25.9193 68.6699 25.3984V24.4219C68.6699 23.9987 68.6536 23.5267 68.6211 23.0059C68.5885 22.4525 68.5234 21.8991 68.4258 21.3457C68.3607 20.7598 68.2467 20.2389 68.084 19.7832C67.9212 19.2949 67.7096 18.9043 67.4492 18.6113C67.1888 18.3184 66.847 18.1719 66.4238 18.1719C65.7077 17.944 65.0892 17.9928 64.5684 18.3184C64.0801 18.6439 63.6732 19.1973 63.3477 19.9785C63.0547 20.7272 62.8268 21.6549 62.6641 22.7617C62.5013 23.8685 62.4036 25.0892 62.3711 26.4238C62.3385 27.7585 62.3223 29.1745 62.3223 30.6719C62.3548 32.1693 62.3711 33.6667 62.3711 35.1641ZM94.8418 28.8652C94.8418 28.8001 94.8581 28.5885 94.8906 28.2305C94.9232 27.8398 94.9883 27.4492 95.0859 27.0586C95.1836 26.6354 95.3464 26.2773 95.5742 25.9844C95.8346 25.6914 96.1764 25.61 96.5996 25.7402C98.0319 23.9173 99.3014 22.127 100.408 20.3691C101.548 18.5788 102.622 16.8047 103.631 15.0469C104.64 13.2565 105.617 11.4499 106.561 9.62695C107.537 7.77148 108.579 5.86719 109.686 3.91406C109.848 3.55599 110.027 3.3444 110.223 3.2793C110.418 3.21419 110.662 3.18164 110.955 3.18164C111.15 3.18164 111.411 3.21419 111.736 3.2793C112.062 3.3444 112.225 3.55599 112.225 3.91406V22.6152C113.331 22.6152 114.406 22.485 115.447 22.2246C116.489 21.9642 117.563 21.834 118.67 21.834C118.963 22.778 118.93 23.4128 118.572 23.7383C118.214 24.0638 117.677 24.2754 116.961 24.373C116.277 24.4707 115.496 24.5521 114.617 24.6172C113.738 24.6497 112.941 24.8125 112.225 25.1055V40.7305C112.225 40.8932 112.111 41.0723 111.883 41.2676C111.688 41.4303 111.443 41.5768 111.15 41.707C110.89 41.8047 110.613 41.9023 110.32 42C110.06 42.0651 109.848 42.0977 109.686 42.0977V25.5449L94.8418 28.8652ZM109.686 10.75C108.969 11.8893 108.156 13.0775 107.244 14.3145C106.365 15.5514 105.486 16.8047 104.607 18.0742C103.761 19.3438 102.947 20.6296 102.166 21.9316C101.417 23.2012 100.815 24.4707 100.359 25.7402H100.945C101.596 25.5775 102.41 25.3659 103.387 25.1055C104.396 24.8125 105.372 24.5358 106.316 24.2754C107.26 23.9824 108.058 23.7383 108.709 23.543L109.686 23.25V10.75ZM127.947 15.0469C129.347 15.3073 130.405 15.8932 131.121 16.8047C131.837 17.6836 132.342 18.7415 132.635 19.9785C132.928 21.1829 133.107 22.4688 133.172 23.8359C133.27 25.2031 133.383 26.4564 133.514 27.5957C133.514 28.1491 133.481 28.8978 133.416 29.8418C133.383 30.7533 133.302 31.7461 133.172 32.8203C133.042 33.862 132.846 34.9362 132.586 36.043C132.326 37.1172 131.951 38.11 131.463 39.0215C131.007 39.9004 130.421 40.6165 129.705 41.1699C129.021 41.7233 128.191 42 127.215 42C126.629 42.2604 126.027 42.1139 125.408 41.5605C124.822 41.0072 124.269 40.1771 123.748 39.0703C123.227 37.9635 122.755 36.6452 122.332 35.1152C121.941 33.5853 121.665 31.9902 121.502 30.3301C121.339 28.6374 121.307 26.9609 121.404 25.3008C121.535 23.6406 121.844 22.1107 122.332 20.7109C122.82 19.2786 123.52 18.0579 124.432 17.0488C125.343 16.0397 126.515 15.3724 127.947 15.0469ZM123.455 23.8359C123.455 27.319 123.585 30.1673 123.846 32.3809C124.139 34.5944 124.497 36.2871 124.92 37.459C125.343 38.6309 125.815 39.3633 126.336 39.6562C126.889 39.9167 127.426 39.8678 127.947 39.5098C128.501 39.1517 129.038 38.5332 129.559 37.6543C130.079 36.7428 130.503 35.7012 130.828 34.5293C131.186 33.3574 131.447 32.1204 131.609 30.8184C131.772 29.4837 131.788 28.2142 131.658 27.0098C131.658 26.0658 131.593 25.0729 131.463 24.0312C131.365 22.9896 131.186 22.013 130.926 21.1016C130.698 20.1576 130.356 19.3275 129.9 18.6113C129.445 17.8626 128.875 17.3255 128.191 17C127.605 17 127.02 17.2441 126.434 17.7324C125.88 18.2207 125.376 18.8066 124.92 19.4902C124.497 20.1738 124.139 20.89 123.846 21.6387C123.553 22.3874 123.406 23.0221 123.406 23.543V23.7383C123.406 23.7708 123.423 23.8034 123.455 23.8359ZM135.467 28.8652C135.467 28.8001 135.483 28.5885 135.516 28.2305C135.548 27.8398 135.613 27.4492 135.711 27.0586C135.809 26.6354 135.971 26.2773 136.199 25.9844C136.46 25.6914 136.801 25.61 137.225 25.7402C138.657 23.9173 139.926 22.127 141.033 20.3691C142.173 18.5788 143.247 16.8047 144.256 15.0469C145.265 13.2565 146.242 11.4499 147.186 9.62695C148.162 7.77148 149.204 5.86719 150.311 3.91406C150.473 3.55599 150.652 3.3444 150.848 3.2793C151.043 3.21419 151.287 3.18164 151.58 3.18164C151.775 3.18164 152.036 3.21419 152.361 3.2793C152.687 3.3444 152.85 3.55599 152.85 3.91406V22.6152C153.956 22.6152 155.031 22.485 156.072 22.2246C157.114 21.9642 158.188 21.834 159.295 21.834C159.588 22.778 159.555 23.4128 159.197 23.7383C158.839 24.0638 158.302 24.2754 157.586 24.373C156.902 24.4707 156.121 24.5521 155.242 24.6172C154.363 24.6497 153.566 24.8125 152.85 25.1055V40.7305C152.85 40.8932 152.736 41.0723 152.508 41.2676C152.312 41.4303 152.068 41.5768 151.775 41.707C151.515 41.8047 151.238 41.9023 150.945 42C150.685 42.0651 150.473 42.0977 150.311 42.0977V25.5449L135.467 28.8652ZM150.311 10.75C149.594 11.8893 148.781 13.0775 147.869 14.3145C146.99 15.5514 146.111 16.8047 145.232 18.0742C144.386 19.3438 143.572 20.6296 142.791 21.9316C142.042 23.2012 141.44 24.4707 140.984 25.7402H141.57C142.221 25.5775 143.035 25.3659 144.012 25.1055C145.021 24.8125 145.997 24.5358 146.941 24.2754C147.885 23.9824 148.683 23.7383 149.334 23.543L150.311 23.25V10.75Z" fill="url(#paint0_linear_84_47)"/>
</g>
<defs>
<linearGradient id="paint0_linear_84_47" x1="18.5" y1="23" x2="169" y2="23" gradientUnits="userSpaceOnUse">
<stop offset="0.0746547" stop-color="#6272A4"/>
<stop offset="0.244792" stop-color="#50FA7B"/>
<stop offset="0.4375" stop-color="#FF79C6"/>
<stop offset="0.59375" stop-color="#F1FA8C"/>
<stop offset="0.770833" stop-color="#BD93F9"/>
<stop offset="1" stop-color="#8BE9FD"/>
</linearGradient>
<clipPath id="clip0_84_47">
<rect width="169" height="51" fill="white"/>
</clipPath>
</defs>
</svg>
